<svg width="75" height="75" xmlns="http://www.w3.org/2000/svg">

 <g>
  <title>background</title>
  <rect fill="none" id="canvas_background" height="77" width="77" y="-1" x="-1"/>
 </g>
 <g>
  <title>Layer 1</title>
  <g stroke="null" id="svg_5">
   <path stroke="null" id="svg_2" fill="#241F20" d="m59.264589,37.470276l1.480807,-2.041691l-0.045347,0c1.025775,-1.119335 1.679394,-2.570092 1.679394,-4.184998c0,-3.447113 -2.788045,-6.239196 -6.232835,-6.239196c-3.447918,0 -6.229708,2.792083 -6.229708,6.239196c0,1.614906 0.653619,3.065664 1.682522,4.184998l-0.054729,0l1.582446,2.041691l-10.557979,0l0,8.165202c0.336192,-0.03283 0.659874,-0.100052 1.005447,-0.100052c5.873189,0 10.637727,4.757172 10.637727,10.633678c0,5.871817 -4.764538,10.633678 -10.637727,10.633678c-0.345574,0 -0.669256,-0.067223 -1.005447,-0.095362l0,8.158949l32.282209,0l0,-37.394529l-15.586779,0l0,-0.001563z"/>
   <path stroke="null" id="svg_3" fill="#241F20" d="m25.038723,43.706345c0,-1.619596 -0.666128,-3.075043 -1.685649,-4.189688l0.053165,0l-1.590264,-2.043255l15.6806,0l0,-15.479959l-2.350214,1.54143l0,-0.03283c-1.050794,0.90985 -2.367414,1.510164 -3.876367,1.510164c-3.447918,0 -6.231272,-2.787393 -6.231272,-6.234506c0,-3.437733 2.783353,-6.234506 6.231272,-6.234506c1.849835,0 3.451046,0.872331 4.56126,2.17301l0,-0.031266l1.665321,1.077125l0,-15.680064l-37.398576,0l0,37.392966l15.586779,0l-1.485498,2.043255l0.040656,0c-1.017957,1.114645 -1.673139,2.570092 -1.673139,4.189688c0,3.447113 2.783353,6.229816 6.234399,6.229816c3.4401,0 6.237526,-2.784267 6.237526,-6.231379z"/>
   <path stroke="null" id="svg_4" fill="#241F20" d="m43.727847,49.937725c-1.618411,0 -3.069507,0.65503 -4.184412,1.677439l0,-0.048463l-2.043732,1.582076l0,-10.522683l-8.149909,0c0.020328,0.28296 0.084439,0.545597 0.084439,0.826994c0,5.876507 -4.764538,10.638368 -10.640854,10.638368c-5.874752,0 -10.63929,-4.761862 -10.63929,-10.638368c0,-0.28296 0.064111,-0.545597 0.084439,-0.826994l-8.140527,0l0,32.240275l37.401703,0l0,-15.581575l2.043732,1.477334l0,-0.035956c1.114905,1.014592 2.566002,1.674312 4.184412,1.674312c3.447918,0 6.232835,-2.788957 6.232835,-6.231379s-2.784917,-6.231379 -6.232835,-6.231379z"/>
  </g>
 </g>
</svg>