<svg width="75" height="75" xmlns="http://www.w3.org/2000/svg">
 <title/>

 <g>
  <title>background</title>
  <rect fill="none" id="canvas_background" height="77" width="77" y="-1" x="-1"/>
 </g>
 <g>
  <title>Layer 1</title>
  <path stroke="null" id="Oval 318" d="m32.319604,51.777074l0,9.024328l10.98401,0l0,-9.024328l-10.98401,0zm5.234001,22.973003c-20.641674,0 -37.37504,-16.653416 -37.37504,-37.196466c0,-20.54305 16.733366,-37.196466 37.37504,-37.196466c20.641674,0 37.37504,16.653416 37.37504,37.196466c0,20.54305 -16.733366,37.196466 -37.37504,37.196466zm-11.352575,-58.071077c-4.595121,2.477285 -7.040056,6.682345 -7.334945,12.615321l10.65226,0c0,-1.727869 0.595898,-3.393201 1.787648,-4.996183c1.191797,-1.602935 3.212852,-2.40438 6.063306,-2.40438c2.899602,0 4.89613,0.65052 5.989584,1.951606c1.0935,1.301086 1.64025,2.742681 1.64025,4.324833c0,1.373944 -0.491435,2.63337 -1.474352,3.778324l-2.137852,1.842341l-2.690676,1.779897c-2.653861,1.748652 -4.300232,3.294352 -4.939111,4.637051c-0.638926,1.342746 -1.032065,3.773163 -1.17951,7.291298l9.951945,0c0.024574,-1.665379 0.184306,-2.893606 0.479148,-3.684682c0.466908,-1.249057 1.412917,-2.341936 2.838167,-3.278729l2.617,-1.717407c2.653861,-1.748699 4.44763,-3.185087 5.381398,-4.309211c1.597222,-1.852756 2.395833,-4.132248 2.395833,-6.838524c0,-4.413268 -1.836796,-7.744025 -5.510436,-9.992319c-3.673639,-2.248294 -8.287074,-3.372418 -13.840538,-3.372418c-4.22651,0 -7.789519,0.791076 -10.689121,2.373181zm0,0"/>
 </g>
</svg>